<svg xmlns="http://www.w3.org/2000/svg" viewBox="0 0 712.97 726.95"><g id="Camada_2" data-name="Camada 2"><g id="Camada_1-2" data-name="Camada 1"><path d="M0,236.14c9.28,32,17.94,61.75,26.55,91.54,12.63,43.67,25,87.42,37.92,131,7.64,25.81,24.88,37.85,50.18,35.94,18.17-1.37,29.73-12.52,38.27-27.28,12.67-21.9,25-44,37.28-66.11C204.69,375.1,219,348.85,233.11,323q39,69.69,78.1,139.31a96.51,96.51,0,0,0,10.39,15.46c24.56,28.69,66.91,20.8,79.45-14.82,3.6-10.25,6.34-20.81,9.42-31.25,12.64-42.77,25.26-85.56,38-128.68,51.27,0,101.92,0,152.56.09,3.44,0,6.92,1.07,10.3,2,13.75,3.59,21.4,12.56,21.72,25.28.35,13.76-6.47,23.57-20.7,27.22-7.79,2-16.16,2.43-24.27,2.47-39.77.24-79.54,0-119.3.31-3.91,0-10.41,1.91-11.26,4.44-6.65,19.72-12.22,39.81-18.33,60.49a69.18,69.18,0,0,0,7.18.91c48,0,95.91.29,143.86-.21,24.65-.25,48.81-3.93,71.4-14.9,31.32-15.21,49.71-39.13,51.25-74.68,1.56-36.06-12.67-64.6-44.65-81-17.56-9-37.93-16.65-57.29-17.31-70.88-2.41-141.86-1.48-212.8-2.23-7.79-.08-8.89,4.37-10.32,9.72q-11,41.1-22,82.19c-5.52,20.73-11,41.5-16.93,64.15-2.11-4.4-3.21-6.87-4.45-9.26q-32.49-62-65-124c-6.59-12.51-15.61-23.72-30.19-25.31-28.17-3.07-43.73-3-60.07,27.82-2.73,5.16-5.49,10.3-8.23,15.45L120.51,390.5c-.93-2.52-1.73-4.24-2.2-6-12.17-46.61-24.2-93.25-36.66-139.78-.87-3.27-4.76-8.11-7.35-8.17C50.22,235.88,26.11,236.14,0,236.14ZM709.32,414.21c-21,18.77-44.05,29.64-69.34,35.36-7.21,1.63-10.19,4.55-12.31,11.37C580.46,613,432.85,707.77,280.32,691.57,183.73,681.32,106.48,637,47.62,560.09c-2.57-3.35-5.16-6.69-7.74-10,60.32,108,201,201,373.07,171.31C573.08,693.79,688.89,563.64,709.32,414.21ZM671.24,173.15C618.7,78.13,484.93-20.58,311.39,3.74c-77,10.79-143.75,44.13-199.9,98.12a352.05,352.05,0,0,0-75.68,105c22.14,0,42-.5,61.85.22,9.35.33,14.26-2.8,19.09-11C195.11,63.77,353.26,2.41,498.07,48,569.54,70.46,627,112.51,671.24,173.15ZM3.24,359.78c-1.54,136.83,82.64,255,210.55,298.16,112.65,38,230.87,2.38,289.77-52-4,2.34-7.36,4.35-10.75,6.22-63.3,35-130.59,45.41-201,29.9-69.22-15.24-125-52.43-168-108.86-2.62-3.44-8-7.06-11.92-6.89C78.09,527.75,44,505.94,32.9,463,24,428.32,13.2,394.16,3.24,359.78ZM677.46,221.57C629,133.29,557.22,78.94,460.17,58.62,375.53,40.9,246.15,73,212.42,119c54.81-28.59,94.8-40.71,140.72-41,91.1-.59,167.07,33.34,225.63,103.2,12.94,15.44,24.72,26,46.16,27.12C641.84,209.2,658.42,216.51,677.46,221.57Z"/><path d="M0,236.14c26.11,0,50.22-.26,74.3.37,2.59.06,6.48,4.9,7.35,8.17,12.46,46.53,24.49,93.17,36.66,139.78.47,1.8,1.27,3.52,2.2,6L180.9,276.62c2.74-5.15,5.5-10.29,8.23-15.45,16.34-30.83,31.9-30.89,60.07-27.82,14.58,1.59,23.6,12.8,30.19,25.31q32.61,62,65,124c1.24,2.39,2.34,4.86,4.45,9.26,6-22.65,11.41-43.42,16.93-64.15q10.95-41.12,22-82.19c1.43-5.35,2.53-9.8,10.32-9.72,70.94.75,141.92-.18,212.8,2.23,19.36.66,39.73,8.3,57.29,17.31,32,16.4,46.21,44.94,44.65,81-1.54,35.55-19.93,59.47-51.25,74.68-22.59,11-46.75,14.65-71.4,14.9-48,.5-95.9.21-143.86.21a69.18,69.18,0,0,1-7.18-.91c6.11-20.68,11.68-40.77,18.33-60.49.85-2.53,7.35-4.41,11.26-4.44,39.76-.32,79.53-.07,119.3-.31,8.11,0,16.48-.46,24.27-2.47,14.23-3.65,21-13.46,20.7-27.22-.32-12.72-8-21.69-21.72-25.28-3.38-.88-6.86-1.94-10.3-2-50.64-.13-101.29-.09-152.56-.09-12.72,43.12-25.34,85.91-38,128.68-3.08,10.44-5.82,21-9.42,31.25-12.54,35.62-54.89,43.51-79.45,14.82a96.51,96.51,0,0,1-10.39-15.46Q272,392.78,233.11,323C219,348.85,204.69,375.1,190.2,401.23c-12.27,22.13-24.61,44.21-37.28,66.11-8.54,14.76-20.1,25.91-38.27,27.28-25.3,1.91-42.54-10.13-50.18-35.94-12.92-43.58-25.29-87.33-37.92-131C17.94,297.89,9.28,268.11,0,236.14Z"/><path d="M709.32,414.21C688.89,563.64,573.08,693.79,413,721.37,240.92,751,100.2,658.06,39.88,550.06c2.58,3.34,5.17,6.68,7.74,10C106.48,637,183.73,681.32,280.32,691.57,432.85,707.77,580.46,613,627.67,460.94c2.12-6.82,5.1-9.74,12.31-11.37C665.27,443.85,688.32,433,709.32,414.21Z"/><path d="M671.24,173.15C627,112.51,569.54,70.46,498.07,48c-144.81-45.57-303,15.79-381.32,148.15-4.83,8.15-9.74,11.28-19.09,11-19.83-.72-39.71-.22-61.85-.22a352.05,352.05,0,0,1,75.68-105c56.15-54,122.87-87.33,199.9-98.12C484.93-20.58,618.7,78.13,671.24,173.15Z"/><path d="M3.24,359.78C13.2,394.16,24,428.32,32.9,463c11.05,43,45.19,64.77,79,63.31,3.93-.17,9.3,3.45,11.92,6.89,43,56.43,98.77,93.62,168,108.86,70.45,15.51,137.74,5.05,201-29.9,3.39-1.87,6.72-3.88,10.75-6.22-58.9,54.4-177.12,90.06-289.77,52C85.88,614.74,1.7,496.61,3.24,359.78Z"/><path d="M677.46,221.57c-19-5.06-35.62-12.37-52.53-13.21-21.44-1.07-33.22-11.68-46.16-27.12C520.21,111.38,444.24,77.45,353.14,78c-45.92.29-85.91,12.41-140.72,41C246.15,73,375.53,40.9,460.17,58.62,557.22,78.94,629,133.29,677.46,221.57Z"/></g></g></svg>